/* XPM */
const static char *icono[] = {
/* columns rows colors chars-per-pixel */
"32 32 172 2",
"   c #010101",
".  c #000806",
"X  c #030A0C",
"o  c #0A0B0E",
"O  c #100402",
"+  c #1C0704",
"@  c #010F15",
"#  c #021016",
"$  c #0F1214",
"%  c #111419",
"&  c #320C07",
"*  c #321408",
"=  c #002019",
"-  c #101726",
";  c #0D2223",
":  c #112D2F",
">  c #05302C",
",  c #292F3C",
"<  c #4E1206",
"1  c #42110B",
"2  c #48130C",
"3  c #501307",
"4  c #662310",
"5  c #033C50",
"6  c #0B3E57",
"7  c #0A3F58",
"8  c #293D42",
"9  c #1C4649",
"0  c #09574C",
"q  c #01435C",
"w  c #0A405A",
"e  c #3D4D52",
"r  c #345453",
"t  c #0C6454",
"y  c #076A54",
"u  c #086852",
"i  c #01765B",
"p  c #04795F",
"a  c #084A67",
"s  c #074C6A",
"d  c #084B69",
"f  c #045677",
"g  c #055779",
"h  c #05587A",
"j  c #085F7D",
"k  c #105C7F",
"l  c #3F5E64",
"z  c #047B60",
"x  c #0B7B6A",
"c  c #266065",
"v  c #3F616A",
"b  c #2A6C70",
"n  c #4B4D46",
"m  c #414B61",
"M  c #565C64",
"N  c #4B5670",
"B  c #73756E",
"V  c #872112",
"C  c #A7270C",
"Z  c #A8270C",
"A  c #AB290E",
"S  c #AF2A10",
"D  c #A32B1C",
"F  c #B02B11",
"G  c #BA341B",
"H  c #C43119",
"J  c #CD341D",
"K  c #D0351F",
"L  c #E43C27",
"P  c #C44420",
"I  c #C6432B",
"U  c #E0402A",
"Y  c #EC6849",
"T  c #D07861",
"R  c #028567",
"E  c #028668",
"W  c #0F8B75",
"Q  c #108478",
"!  c #19837E",
"~  c #025F83",
"^  c #095D80",
"/  c #105E81",
"(  c #026287",
")  c #026388",
"_  c #106385",
"`  c #10698B",
"'  c #146C90",
"]  c #167395",
"[  c #237699",
"{  c #277998",
"}  c #2F69B2",
"|  c #3C63BC",
" . c #5C6D93",
".. c #537592",
"X. c #5671AE",
"o. c #627AB0",
"O. c #406AC9",
"+. c #4770CB",
"@. c #4E77CB",
"#. c #547ACF",
"$. c #5B7FD2",
"%. c #1B8B86",
"&. c #248F8C",
"*. c #328086",
"=. c #34858B",
"-. c #388D94",
";. c #34819F",
":. c #3584A0",
">. c #3C9BA4",
",. c #46849A",
"<. c #4FA19F",
"1. c #4A94AB",
"2. c #428DB5",
"3. c #6883BE",
"4. c #40A2A9",
"5. c #4BA6AE",
"6. c #58A9AA",
"7. c #4CA7B2",
"8. c #5DAEB7",
"9. c #62ABA1",
"0. c #64AEB8",
"q. c #6CACBC",
"w. c #77A1B5",
"e. c #73ADBA",
"r. c #67B3B7",
"t. c #66B1BA",
"y. c #6FB5BE",
"u. c #7FB3BC",
"i. c #7CBCB9",
"p. c #5D86CD",
"a. c #648ACE",
"s. c #6B8BCE",
"d. c #6C99CD",
"f. c #6084D2",
"g. c #6789D4",
"h. c #6A8BD4",
"j. c #6DAFC2",
"k. c #6EA3C8",
"l. c #70A8C8",
"z. c #77B8C2",
"x. c #7BA0D3",
"c. c #B7B7A3",
"v. c #E4B29E",
"b. c #E6C2AF",
"n. c #E8C6B2",
"m. c #839DCE",
"M. c #94BDC1",
"N. c #8CA6DC",
"B. c #A1B4D0",
"V. c #A8B8D1",
"C. c #A8BBDE",
"Z. c #93C2C3",
"A. c #9BC6C5",
"S. c #9BC9C1",
"D. c #91C3C9",
"F. c #9BC8CA",
"G. c #A3CACD",
"H. c #B9D3C2",
"J. c #BCD7C9",
"K. c #B6D4D2",
"L. c #DBDBC4",
"P. c #C6D0D3",
"I. c #CCD3D3",
"U. c #C9DCD3",
"Y. c #C7D2DE",
"T. c #D5DBDB",
"R. c #D7E1D3",
"E. c #DCE5D3",
"W. c #E4E5D4",
"Q. c #E6E8D7",
"!. c #EAEAD5",
"~. c None",
/* pixels */
"~.~.~.~.~.~.~.~.~.~.~.~.~.~.~.~.~.  ~.~.~.~.~.~.~.~.~.~.~.~.~.~.",
"~.~.~.~.~.~.~.~.~.~.~.~.~.~.~.o m o.- ~.~.~.~.~.~.~.~.~.~.~.~.~.",
"~.~.~.~.~.~.~.~.~.~.~.~.  ,  .g.a.B.B   ~.~.  ~.~.~.~.~.~.~.~.~.",
"~.~.~.~.~.~.~.~.~.  % N 3.f.m.P.!.!.!.c.M  .X.  ~.~.~.~.~.~.~.~.",
"~.~.~.~.~.~.~.  8 ..g.s.V.W.!.!.!.Q.Y.N.$.O.| $ $ ~.~.~.~.~.~.~.",
"~.~.~.~.  * v ,.;.w.I.!.!.!.!.T.C.h.+.O.O.p.k.0.r ~.~.~.~.~.~.~.",
"~.~.O 4 P Y :.q.W.!.!.!.R.G.x.#.O.O.@.d.j.r.S.E.L.n e l   ~.~.~.",
"+ V G T n.W.' ] 1.u.M.e.{ ' } O.a.l.t.i.J.!.!.E.K.z.5.-.  ~.~.~.",
"2 U v.W.W.b.` ( f a 6 / ^ [ 2.>.6.S.E.!.W.U.D.8.4.4.4.-.  ~.~.~.",
"2 L K J I H _ ( g a 6 / j 7.9.H.!.!.U.F.y.5.4.4.4.4.4.-.  ~.~.~.",
"2 L J A C H _ ( g a 6 / j W 6.Z.A.<.&.%.4.4.4.4.4.4.4.-.  ~.~.~.",
"2 L J A C H _ ( g a 6 / j R p u t x Q %.4.4.4.4.4.4.4.-.  ~.~.~.",
"2 L J A C H _ ) g a 6 / j R p u t x Q %.4.4.4.4.4.4.4.-.  ~.~.~.",
"2 L J A C H _ ) g a 6 / j R p u t x Q %.4.4.4.4.4.4.4.-.  ~.~.~.",
"2 L J A C H _ ) g d 7 / j R p u t x Q %.4.4.4.4.4.4.4.-.  ~.~.~.",
"2 L J A C H _ ) g d 7 / j R p u t x Q %.4.4.4.4.4.4.4.-.  ~.~.~.",
"2 L J A Z H _ ) g d 7 / j R p u t x Q %.4.4.4.4.4.4.4.-.  ~.~.~.",
"2 L J S Z H _ ) g d 7 / j E z u t x Q %.4.4.4.4.4.4.4.-.  ~.~.~.",
"2 L J S Z H _ ) g d 7 / j E z u t x Q %.4.4.4.4.4.4.4.-.  ~.~.~.",
"2 L J S Z H _ ) h d 7 / j E z u t x Q %.4.4.4.4.4.4.4.-.  ~.~.~.",
"2 L J S Z H _ ) h d 7 / j E z u t x Q %.4.4.4.4.4.4.4.-.  ~.~.~.",
"2 L J F Z H _ ) h d 7 / j E z y t x Q %.4.4.4.4.4.4.4.-.  ~.~.~.",
"2 L J F Z H _ ) h s 7 / j E z y t x Q %.4.4.4.4.4.4.4.-.  ~.~.~.",
"2 L K F Z H _ ) h s w / j E z y t x Q %.4.4.4.4.4.4.4.-.  ~.~.~.",
"1 L K F A H _ ) h s w / j E z y t x Q %.4.4.4.4.4.4.4.-.  ~.~.~.",
"  D K F A H _ ) h s w / j E z y t x Q %.4.4.4.4.4.4.4.-.  ~.~.~.",
"~.  & 3 < + ~ ) h s w / j E z y t x Q %.4.4.4.4.4.4.4.*.  ~.~.~.",
"~.~.~.~.~.  q ) h s w / j E z y t x Q %.4.4.4.4.>.b :   ~.~.~.~.",
"~.~.~.~.~.~.. 5 f s w k 5 E z y t x Q %.4.4.=.9 X   ~.~.~.~.~.~.",
"~.~.~.~.~.~.~.~.  @ # X   i z y t x Q ! c ;   ~.~.~.~.~.~.~.~.~.",
"~.~.~.~.~.~.~.~.~.~.~.~.~.= y y t 0 > . ~.~.~.~.~.~.~.~.~.~.~.~.",
"~.~.~.~.~.~.~.~.~.~.~.~.~.~.  .     ~.~.~.~.~.~.~.~.~.~.~.~.~.~."
};
